# xmcd
#
# Track frame offsets: 
#        150
#        21515
#        39977
#        69290
#        152732
#        177160
#        202257
#        235690
#        260315
#
# Disc length: 4055 seconds
#
# Revision: 1
# Processed by: cddbd v1.5.2PL0 Copyright (c) Steve Scherf et al.
# Submitted via: ExactAudioCopy v1.0b3
#
DISCID=720fd509
DTITLE=Tai Linh, VA - Mua Bui 3
DYEAR=1900
DGENRE=
TTITLE0=Tai Linh, Kim Tu Long - Di cay
TTITLE1=Tai Linh, Mong Na - Canh chim bat gio
TTITLE2=Tran Sang - Dem toc roi
TTITLE3=Tai Linh, Dinh Van - LK Hon Vong Phu 1, 2, 3
TTITLE4=Tai Linh, Sy Ben - Mua thu la bay
TTITLE5=Che Thanh, Thuy Trang - Mau xanh ky niem
TTITLE6=Tai Linh, Dinh Van - Duyen tinh
TTITLE7=Tran Sang, Thuy Trang - Trach nguoi trong mong
TTITLE8=Dinh Van, Sy Ben - LK Tinh nhat phai, Xa em ky niem
EXTD=
EXTT0=
EXTT1=
EXTT2=
EXTT3=
EXTT4=
EXTT5=
EXTT6=
EXTT7=
EXTT8=
PLAYORDER=
